<?xml version="1.0" standalone="no"?>
<!DOCTYPE svg PUBLIC "-//W3C//DTD SVG 20010904//EN"
 "http://www.w3.org/TR/2001/REC-SVG-20010904/DTD/svg10.dtd">
<svg version="1.0" xmlns="http://www.w3.org/2000/svg"
 width="512.000000pt" height="512.000000pt" viewBox="0 0 512.000000 512.000000"
 preserveAspectRatio="xMidYMid meet">

<g transform="translate(0.000000,512.000000) scale(0.100000,-0.100000)"
fill="#000000" stroke="none">
<path d="M2802 5007 c-142 -158 -237 -315 -263 -437 -30 -139 4 -282 111 -465
149 -256 173 -322 174 -470 1 -114 -22 -205 -80 -314 -18 -36 -32 -66 -30 -68
5 -5 125 125 173 187 102 135 149 283 124 401 -15 77 -46 147 -111 255 -117
193 -160 317 -160 467 0 147 50 330 131 473 53 94 36 87 -69 -29z"/>
<path d="M2141 4458 c-108 -147 -171 -300 -171 -413 0 -108 40 -196 165 -360
135 -178 178 -298 155 -438 -6 -37 -20 -92 -31 -123 -12 -30 -19 -57 -17 -60
7 -7 97 124 127 184 49 97 64 158 59 231 -6 83 -33 138 -139 279 -97 130 -132
201 -154 311 -22 105 -10 216 39 368 19 57 32 103 31 103 -2 0 -31 -37 -64
-82z"/>
<path d="M2225 2913 c-346 -10 -842 -68 -1025 -119 -30 -8 -79 -21 -107 -29
-124 -34 -236 -95 -287 -155 -44 -53 -50 -90 -37 -261 33 -436 174 -805 429
-1120 121 -150 319 -322 485 -422 31 -19 84 -60 117 -90 143 -133 380 -186
770 -174 208 6 323 24 440 66 90 33 125 55 190 117 25 24 72 59 105 79 109 66
217 149 324 251 l106 100 135 38 c531 149 891 369 1009 616 22 46 26 69 26
140 0 73 -4 93 -28 142 -51 104 -178 195 -317 229 -49 12 -119 13 -290 6 l-45
-2 0 110 c0 124 -9 150 -70 204 -213 187 -1014 300 -1930 274z m610 -93 c670
-30 1160 -131 1270 -261 33 -40 32 -71 -6 -113 -97 -111 -480 -201 -1054 -248
-200 -16 -906 -16 -1100 0 -583 49 -957 137 -1054 247 -17 20 -31 46 -31 60 0
94 238 193 605 250 426 66 874 87 1370 65z m1745 -671 c206 -93 181 -342 -49
-498 -71 -49 -197 -112 -281 -141 -104 -36 -284 -79 -293 -70 -5 4 20 63 54
131 35 68 84 186 109 261 41 124 50 143 99 198 87 99 161 139 261 139 34 0 72
-7 100 -20z m-1875 -78 c-6 -5 -42 -19 -82 -30 -112 -33 -227 -96 -299 -163
-35 -33 -64 -63 -64 -67 0 -3 28 -20 62 -38 l61 -32 91 44 c102 49 233 88 349
104 135 19 356 9 364 -15 3 -8 -45 -13 -154 -17 -171 -5 -281 -24 -383 -64
-72 -29 -169 -89 -177 -110 -3 -7 10 -31 28 -52 19 -22 41 -50 50 -62 l16 -23
74 22 c194 57 404 65 579 22 91 -22 220 -77 220 -93 0 -5 -8 -6 -17 -2 -66 25
-244 56 -358 61 -141 7 -226 -2 -350 -35 -117 -32 -114 -27 -81 -109 l28 -70
112 5 c125 6 260 -7 385 -38 91 -23 224 -75 262 -104 27 -19 33 -21 -86 15
-108 32 -299 60 -407 60 -97 0 -112 -6 -82 -30 22 -19 37 -50 44 -90 5 -33 8
-35 56 -42 77 -11 190 -54 277 -106 42 -25 77 -49 77 -53 0 -3 -6 -11 -12 -17
-10 -7 -38 2 -101 33 -89 44 -172 69 -262 80 -49 6 -51 5 -99 -42 l-49 -47 24
-16 c68 -44 169 -175 169 -220 0 -19 -130 -63 -235 -80 -89 -15 -299 -12 -385
4 -285 55 -529 225 -635 442 -85 174 -84 356 1 526 110 220 333 379 614 439
92 19 393 27 375 10z"/>
<path d="M2123 1647 c-69 -70 -83 -89 -83 -115 0 -20 8 -39 20 -49 28 -24 26
-34 -20 -78 -64 -63 -112 -138 -108 -170 2 -24 11 -31 53 -45 l50 -17 8 -97
c4 -53 14 -110 22 -126 18 -35 69 -63 143 -79 67 -14 482 -15 482 -1 0 6 -17
10 -38 10 -21 0 -64 7 -97 15 -155 41 -195 112 -119 212 31 40 27 74 -11 99
-14 9 -25 20 -25 25 0 5 25 33 55 61 30 28 55 57 55 65 0 24 -104 57 -285 88
-38 6 -39 8 -20 22 15 11 42 14 110 11 88 -3 90 -3 93 21 9 64 -79 181 -162
215 l-39 16 -84 -83z"/>
<path d="M2578 1240 c-49 -27 -68 -56 -68 -108 0 -33 6 -49 25 -68 31 -31 84
-54 127 -54 41 0 115 36 135 66 20 31 19 88 -2 120 -38 58 -148 80 -217 44z"/>
<path d="M643 1656 c-72 -24 -184 -69 -248 -100 -274 -131 -393 -269 -383
-441 6 -85 31 -138 102 -213 64 -68 97 -91 320 -220 205 -117 407 -218 641
-317 88 -37 214 -91 280 -120 228 -100 482 -171 760 -211 148 -22 569 -25 715
-6 96 12 112 15 299 53 126 25 314 84 453 143 56 24 173 73 258 109 312 131
505 226 737 363 46 27 111 65 145 84 35 19 97 69 139 110 60 60 81 89 98 135
29 76 26 168 -7 235 -28 59 -109 150 -168 189 -43 28 -48 29 -73 16 -58 -30
-57 -39 13 -89 237 -169 207 -372 -79 -535 -729 -418 -2683 -510 -3842 -181
-454 128 -696 293 -696 475 0 95 64 181 195 266 107 68 203 111 378 169 79 27
146 53 148 60 7 20 -20 70 -37 70 -9 0 -75 -20 -148 -44z"/>
</g>
</svg>
